<?xml version="1.0" encoding="utf-8"?>
<!-- Generator: Adobe Illustrator 23.0.6, SVG Export Plug-In . SVG Version: 6.00 Build 0)  -->
<svg version="1.1" id="Layer_1" xmlns="http://www.w3.org/2000/svg" xmlns:xlink="http://www.w3.org/1999/xlink" x="0px" y="0px"
	 viewBox="0 0 123 123" style="enable-background:new 0 0 123 123;" xml:space="preserve">
<style type="text/css">
	.st0{clip-path:url(#SVGID_2_);}
	.st1{fill-rule:evenodd;clip-rule:evenodd;fill:#353535;}
</style>
<g>
	<defs>
		<rect id="SVGID_1_" width="122.9" height="122.9"/>
	</defs>
	<clipPath id="SVGID_2_">
		<use xlink:href="#SVGID_1_"  style="overflow:visible;"/>
	</clipPath>
	<g class="st0">
		<path class="st1" d="M61.4,0c12.2,0,24,3.6,34.1,10.4c10.1,6.8,18,16.3,22.6,27.6c4.6,11.2,5.9,23.6,3.5,35.5
			c-2.4,11.9-8.2,22.9-16.8,31.5c-8.6,8.6-19.5,14.4-31.5,16.8c-11.9,2.4-24.3,1.2-35.5-3.5c-11.2-4.7-20.8-12.5-27.6-22.6
			C3.6,85.5,0,73.6,0,61.4C0,45.1,6.5,29.5,18,18C29.5,6.5,45.1,0,61.4,0L61.4,0z M30.7,38L62,63.5L91.9,38H30.7z M28.7,80.9
			L51,58.5L28.7,40.4L28.7,80.9L28.7,80.9z M53.4,60.5l-23,23h61.7l-21.9-23L63,66.7c-0.3,0.2-0.6,0.4-1,0.4s-0.7-0.1-1-0.4
			L53.4,60.5L53.4,60.5z M72.7,58.5l21.5,22.5V40.2L72.7,58.5L72.7,58.5z"/>
	</g>
</g>
</svg>
