<svg width="201" height="182" viewBox="0 0 201 182" fill="none" xmlns="http://www.w3.org/2000/svg">
<path d="M0 0H201V182H0V0Z" fill="white"/>
<path d="M110.781 68.5477C111.846 69.0853 113.193 70.5839 115.769 70.7667C118.296 70.943 119.758 69.6925 120.896 69.4384C121.152 67.5946 121.241 66.0205 121.262 64.7791C118.91 64.6939 116.558 64.612 114.206 64.5301C114.104 63.7498 114.004 62.9729 113.902 62.1925C113.032 61.9325 112.159 61.6723 111.29 61.409C111.143 62.3742 111.023 63.3809 110.936 64.423C110.818 65.843 110.768 67.2181 110.781 68.5477Z" fill="#CCCCCB"/>
<path d="M110.781 68.5477C110.805 71.7292 111.164 74.6324 111.672 77.1885C112.211 77.5487 113.231 78.1196 114.628 78.2861C116.78 78.543 118.408 77.6673 118.958 77.3406C119.813 74.9123 120.304 72.8529 120.602 71.2598C120.654 70.979 120.693 70.7469 120.71 70.6423C120.78 70.2272 120.84 69.828 120.896 69.4384C119.758 69.6925 118.296 70.943 115.769 70.7667C113.193 70.5839 111.846 69.0853 110.781 68.5477Z" fill="#CCEBF3"/>
<path d="M88.2368 39.5227C88.4519 41.5733 90.6387 43.4258 91.4621 44.1256C91.6025 44.2442 91.9647 44.5461 92.5174 44.9072C92.3472 45.6263 92.1131 46.2154 91.8804 46.6857C91.2925 47.8792 90.648 48.4441 90.8685 49.2357C91.2162 50.4887 93.3488 50.8897 93.616 50.9374C94.7198 51.1437 95.6473 50.9317 96.1527 50.7706C96.0967 49.3454 96.0405 47.9236 95.9845 46.4985C97.2882 46.8703 98.9143 47.1547 99.9363 47.058C100.951 46.9708 102.254 44.4139 102.74 40.4105C103.058 37.7842 102.221 33.1697 99.6181 31.762C95.6256 29.5999 87.792 35.2949 88.2368 39.5227Z" fill="#E8B484"/>
<path d="M105.904 89.8281C109.544 90.7998 111.705 92.4059 112.897 93.504C113.844 94.3807 114.173 94.9317 114.053 95.1021C113.721 95.5724 110.003 92.956 108.735 94.0707C108.279 94.4699 108.481 95.0487 108.062 95.2916C107.304 95.7332 105.671 94.3807 104.163 92.868C104.743 91.8525 105.322 90.8402 105.904 89.8281Z" fill="#E8B484"/>
<path d="M63.2677 133.922L60.2848 138.574L55.3462 136.556L59.5945 130.931L63.2677 133.922Z" fill="#E8B484"/>
<path d="M61.0583 137.558C60.1153 138.15 58.9179 138.159 57.9712 137.576C57.0149 136.99 56.4779 135.902 56.5861 134.782C56.1884 134.567 55.7905 134.355 55.3961 134.141C54.6666 134.399 53.5312 134.908 52.4155 135.911C50.9417 137.236 50.2712 138.728 49.9842 139.516C55.5724 143.791 54.2991 142.016 59.8873 146.292C61.0645 146.615 66.4665 148.754 67.2887 148.754C68.111 148.753 68.5201 148.239 68.932 147.108C68.2211 145.715 65.1002 143.221 64.8183 143C63.7597 142.169 63.7624 142.46 61.0583 137.558Z" fill="#606161"/>
<path d="M110.112 152.231L108.39 146.979L113.067 144.404L114.743 151.256L110.112 152.231Z" fill="#E8B484"/>
<path d="M114.547 149.567C114.035 150.557 113.005 151.172 111.895 151.154C110.775 151.135 109.762 150.472 109.289 149.452C108.84 149.471 108.387 149.487 107.937 149.506C107.439 150.101 106.718 151.117 106.266 152.548C105.667 154.438 105.848 156.066 105.997 156.893C112.977 157.732 119.956 158.571 126.936 159.409C127.125 158.163 127.314 156.916 127.503 155.666C127.222 155.346 126.752 154.869 126.072 154.439C124.754 153.601 123.471 153.465 123.114 153.418C121.785 153.236 119.357 152.412 114.547 149.567Z" fill="#606161"/>
<path d="M82.8859 96.5333C83.5138 99.6529 85.5972 103.782 88.5342 109.341C89.7832 111.706 91.1864 114.329 92.7018 117.243C93.4464 118.675 94.2159 120.178 95.0068 121.755C100.808 133.317 104.784 142.988 107.146 149.07C109.783 148.235 112.421 147.398 115.058 146.563C113.775 140.587 112.34 134.465 110.735 128.212C107.534 115.74 103.986 103.999 100.24 93.008C99.4882 93.655 98.7359 94.3019 97.9836 94.9489C97.9226 94.9745 97.8646 95.0037 97.8004 95.0258C96.778 95.4728 95.4354 95.9744 93.8229 96.3718C92.4651 96.7071 90.9111 96.9696 89.2005 97.0597C88.3602 97.1025 85.9842 97.1843 82.8859 96.5333Z" fill="#A38559"/>
<path d="M82.886 96.5333C83.5139 99.6529 85.5973 103.782 88.5343 109.341L93.823 96.3718C92.4652 96.7071 90.9112 96.9696 89.2006 97.0597C88.3603 97.1025 85.9843 97.1843 82.886 96.5333Z" fill="#A38559"/>
<path d="M58.7178 130.673L64.2817 135.309L82.5073 124.122L86.8013 113.595C84.9498 110.922 82.8141 108.111 80.3461 105.241C77.8353 102.323 75.3338 99.7548 72.9424 97.5118L72.7161 117.726L58.7178 130.673Z" fill="#A38559"/>
<path d="M66.0118 84.7006C66.8807 86.0977 68.4784 88.3767 71.0254 90.6103C71.6292 91.1433 72.2862 91.67 73.0001 92.1841C73.7676 92.7347 74.6018 93.2733 75.5044 93.7769C78.1324 95.2457 80.6914 96.072 82.8859 96.5334C85.9842 97.1844 88.3602 97.1026 89.2005 97.0598C90.9111 96.9697 92.4652 96.7072 93.8229 96.3719C95.4355 95.9745 96.7781 95.4729 97.8005 95.0259C97.8646 95.0038 97.9226 94.9746 97.9837 94.949C98.736 94.302 99.4882 93.6551 100.241 93.0081C101.633 91.8092 103.026 90.6135 104.415 89.4177C104.235 87.1413 104.018 84.8163 103.762 82.4423C101.232 84.53 98.237 86.1668 95.5026 85.4973C89.5568 84.0436 85.374 71.8003 88.0901 54.7214C88.0911 54.5099 88.1199 54.2772 88.189 54.0339C88.9439 51.384 94.1565 49.6152 96.7064 51.3135C98.1927 52.3058 98.4846 54.2921 98.6689 55.9176C99.101 59.7446 99.4204 65.7423 98.4716 73.8828C99.7726 73.1174 101.077 72.3554 102.377 71.5932C102.019 69.1727 101.617 66.7129 101.171 64.2171C100.328 59.4964 99.3855 54.9674 98.3771 50.639C96.2241 49.9523 92.9762 49.1227 88.9569 48.8826C84.4977 48.613 80.6131 48.3786 77.05 50.6714C73.57 52.9069 70.6482 57.3847 71.859 59.4361C73.0048 61.374 77.804 61.0979 81.0679 59.38C84.1953 57.7323 85.4975 54.9837 85.6202 55.0712C86.0358 55.3636 70.4914 78.1359 70.4914 78.1359C69.7927 79.1633 66.7068 83.6796 66.0118 84.7006Z" fill="#FFA434"/>
<path d="M95.5026 85.4972C98.237 86.1667 101.232 84.5299 103.762 82.4421C103.388 78.9264 102.932 75.3061 102.377 71.5931C101.077 72.3553 99.7725 73.1173 98.4716 73.8827C99.4204 65.7422 99.101 59.7445 98.6689 55.9175C98.4846 54.292 98.1927 52.3056 96.7064 51.3134C94.1565 49.615 88.9439 51.3839 88.189 54.0338C88.1199 54.277 88.0911 54.5098 88.0901 54.7213C85.374 71.8001 89.5568 84.0435 95.5026 85.4972Z" fill="#3B5F16"/>
<path d="M95.5026 85.4971C97.1958 85.9116 100.886 84.5265 103.762 82.4421C105.27 81.3468 106.327 80.1881 107.008 79.3281C107.285 78.6889 107.539 77.8961 107.421 77.2535L106.954 77.7808C106.509 77.622 105.09 77.0574 104.141 75.5293C103.373 74.2911 103.323 73.0812 103.33 72.576L103.503 72.4587C103.218 72.3866 102.872 72.3238 102.481 72.3041C102.235 72.2942 101.971 72.2996 101.692 72.3271C101.393 72.3567 101.112 72.4138 100.85 72.4888C99.6003 72.8346 98.7788 73.5794 98.4716 73.8827C99.4173 65.7387 99.1011 59.7444 98.6689 55.9174C98.4846 54.292 98.1927 52.3056 96.7064 51.3133C94.1565 49.615 88.9439 51.3838 88.189 54.0337C88.1199 54.277 88.0911 54.5098 88.0901 54.7212C85.374 71.8001 89.5568 84.0435 95.5026 85.4971Z" fill="#E87613"/>
<path d="M73.0002 92.184L72.9425 97.5119C75.3338 99.7549 77.8353 102.323 80.3462 105.241C82.8142 108.111 84.9498 110.922 86.8013 113.595L88.5343 109.341C85.5973 103.783 83.5139 99.6529 82.8859 96.5334C80.6915 96.072 78.1324 95.2457 75.5044 93.7768C74.6019 93.2733 73.7676 92.7347 73.0002 92.184Z" fill="#8D7249"/>
<path d="M82.8859 96.5333C83.5139 99.6529 85.5973 103.782 88.5342 109.341C89.7833 111.706 91.1864 114.329 92.7019 117.243C95.0351 115 98.1309 111.123 98.9464 105.703C99.4593 102.287 99.028 98.4964 97.8005 95.0258C96.7781 95.4728 95.4355 95.9744 93.823 96.3719C92.4652 96.7071 90.9112 96.9697 89.2006 97.0598C88.3603 97.1025 85.9842 97.1843 82.8859 96.5333Z" fill="#A38559"/>
<path d="M103.33 72.5761C103.323 73.0813 103.373 74.2912 104.141 75.5294C105.09 77.0575 106.509 77.6222 106.953 77.7809L107.421 77.2537L108.968 75.5164C108.845 75.6403 108.443 75.4844 107.954 75.1508C107.457 74.8067 106.869 74.2715 106.4 73.6549C106.03 73.1673 105.746 72.5896 105.598 72.0937C105.45 71.6012 105.434 71.1903 105.597 71.0194L103.503 72.4588L103.33 72.5761Z" fill="#3B5F16"/>
<path d="M105.598 72.0937C105.746 72.5895 106.03 73.1672 106.4 73.6548C106.869 74.2714 107.457 74.8066 107.954 75.1508C108.109 75.0157 108.269 74.8876 108.438 74.7767C108.535 74.7071 108.638 74.6414 108.741 74.5854C109.169 74.3432 109.641 74.1832 110.154 74.1614C110.894 74.1318 111.106 74.4137 112.231 74.5521C113.189 74.6693 114.684 74.8522 115.463 74.0947C116.236 73.3401 116.204 71.7579 115.47 70.2113C113.772 70.0146 112.074 69.8147 110.377 69.6181C111.128 68.3959 111.319 67.222 110.824 66.693C110.737 66.6012 110.618 66.5139 110.438 66.4489C109.736 67.6149 108.774 68.9783 107.466 70.3515C107.111 70.721 106.758 71.0675 106.41 71.3846C106.33 71.4585 106.249 71.5325 106.168 71.6064C105.975 71.7785 105.783 71.9408 105.598 72.0937Z" fill="#E8B484"/>
<path d="M106.469 89.5688C105.729 90.8083 104.99 92.0478 104.251 93.284C103.256 92.7875 102.26 92.291 101.268 91.7913C102.013 90.6745 102.757 89.5543 103.505 88.4377C104.491 88.818 105.479 89.1916 106.469 89.5688Z" fill="#3B5F16"/>
<path d="M108.27 75.2579C107.344 74.0288 106.414 72.7996 105.488 71.5673Z" fill="#B8E986"/>
<path d="M103.522 28.4642C105.453 29.7176 106.515 31.8681 106.226 33.9642C105.899 36.3321 103.985 37.5754 103.875 37.6473C102.216 38.6895 100.518 38.4003 100.127 38.3245C101.215 37.4423 101.647 36.3639 101.309 35.7463C101.241 35.6227 101.096 35.4312 100.75 35.2856C100.387 35.8761 99.2888 37.5014 97.1304 38.4175C95.1891 39.2425 93.4617 39.0438 92.7606 38.9274C92.9924 38.8636 93.7978 38.6037 94.2669 37.8055C94.4084 37.5637 94.6539 37.1472 94.5503 36.7271C94.3174 35.776 92.3935 35.1146 91.5363 35.8504C90.8996 36.396 91.0679 37.5246 91.1117 37.8052C91.2095 38.4596 91.5107 38.9327 91.6692 39.1747C92.2822 40.1117 92.7879 40.0431 92.8633 40.5407C92.971 41.2454 91.9599 41.475 91.6583 42.8232C91.5179 43.4419 91.6242 43.8721 91.6648 44.0037C91.7975 44.482 92.0693 44.8044 92.2296 44.9705C91.5719 44.847 90.7423 44.5831 89.9819 43.9767C89.0523 43.2366 88.5678 42.2521 88.4275 42.3287C88.2804 42.408 88.7885 43.4338 88.6681 43.5083C88.4691 43.6239 86.2337 41.2195 85.3802 38.5608C83.6928 33.2975 87.7706 28.1007 88.3638 27.3671C89.5155 26.7139 91.3243 25.8966 93.6552 25.6531C98.6854 25.1281 102.441 27.671 103.522 28.4642Z" fill="#2A1313"/>
<path d="M93.3494 21.3685C93.447 21.4378 95.2716 22.7437 94.9737 24.1351C94.8721 24.6175 94.4826 25.2624 94.0579 25.2537C93.699 25.2461 93.4076 24.7737 93.2739 24.5565C93.1965 24.4323 93.0557 24.1716 92.9794 23.7864C92.777 22.7745 93.205 21.7025 93.3494 21.3685Z" fill="#2A1313"/>
<path d="M90.6102 23.0785C90.8487 22.8664 91.7584 23.3605 92.2444 24.0774C92.4033 24.3128 92.7308 24.8868 92.5569 25.0702C92.3511 25.2877 91.4613 24.9371 90.9674 24.2891C90.6646 23.8887 90.4173 23.2506 90.6102 23.0785Z" fill="#2A1313"/>
</svg>
